<svg width="32" height="32" viewBox="0 0 32 32" fill="none" xmlns="http://www.w3.org/2000/svg">
<path fill-rule="evenodd" clip-rule="evenodd" d="M11.8773 8.49413V11.7755L16.805 7.06524L11.8773 2.17383V6.0378C10.6056 6.29085 9.0393 6.73623 7.66126 7.41436C6.00441 8.22968 4.09668 9.65116 4.09668 11.915V22.6412C4.19219 22.8307 4.28518 23.0166 4.40052 23.1951C4.50256 23.353 4.65134 23.5634 4.85583 23.808C5.26541 24.2979 5.89652 24.9229 6.8182 25.5374C8.67274 26.7738 11.6335 27.9215 16.192 27.9215C20.749 27.9215 23.6285 26.7741 25.4018 25.5182C26.2825 24.8945 26.8696 24.2583 27.2445 23.7571C27.4316 23.507 27.5652 23.2913 27.656 23.1287C27.7522 22.9564 27.8278 22.7773 27.9034 22.5955V11.915C27.9034 10.7765 27.3945 9.82028 26.7255 9.0736C26.0626 8.33363 25.1952 7.742 24.3217 7.28492C22.6029 6.38552 20.5699 5.86045 19.3346 5.86045V8.26289C20.0896 8.26289 21.7404 8.64569 23.2078 9.41355C23.9274 9.7901 24.5288 10.2219 24.9362 10.6767C25.3377 11.1248 25.501 11.5346 25.501 11.915C25.501 12.1925 25.3523 12.5754 24.802 13.0539C24.2549 13.5297 23.4341 13.9849 22.4241 14.3796C20.4047 15.1686 17.9252 15.6025 16.192 15.6025C14.3917 15.6025 11.8047 15.3321 9.71067 14.634C8.66092 14.2841 7.8193 13.854 7.26026 13.3654C6.72421 12.8969 6.49912 12.4276 6.49912 11.915C6.49912 11.1617 7.16359 10.3368 8.72201 9.56993C9.71523 9.08118 10.8648 8.72499 11.8773 8.49413ZM23.2984 16.6173C24.0769 16.3131 24.8339 15.9492 25.501 15.5198V22.0549C25.4573 22.1255 25.3981 22.2147 25.3207 22.3181C25.0835 22.6352 24.6733 23.0902 24.0133 23.5577C22.7051 24.4841 20.3295 25.5191 16.192 25.5191C12.056 25.5191 9.56975 24.4844 8.15086 23.5385C7.43582 23.0618 6.97361 22.5956 6.69905 22.2671C6.616 22.1678 6.54993 22.0808 6.49912 22.0097V15.7847C7.23996 16.258 8.08834 16.6256 8.95091 16.9132C11.3612 17.7166 14.2212 18.0049 16.192 18.0049C18.2299 18.0049 21.0055 17.5132 23.2984 16.6173Z" fill="#2C2A32"/>
</svg>
