<svg width="32" height="32" viewBox="0 0 32 32" fill="none" xmlns="http://www.w3.org/2000/svg">
<path d="M21.1397 16.4139L12.1604 11.1503V21.6775L21.1397 16.4139Z" fill="#2C2A32"/>
<path fill-rule="evenodd" clip-rule="evenodd" d="M2.61963 11.9663C2.61963 8.92631 5.08402 6.46191 8.12401 6.46191H22.6787C25.7187 6.46191 28.1831 8.92631 28.1831 11.9663V20.8624C28.1831 23.9024 25.7187 26.3668 22.6787 26.3668H8.124C5.08402 26.3668 2.61963 23.9024 2.61963 20.8624V11.9663ZM8.12401 8.66367H22.6787C24.5027 8.66367 25.9813 10.1423 25.9813 11.9663V20.8624C25.9813 22.6864 24.5027 24.165 22.6787 24.165H8.124C6.30001 24.165 4.82138 22.6864 4.82138 20.8624V11.9663C4.82138 10.1423 6.30002 8.66367 8.12401 8.66367Z" fill="#2C2A32"/>
</svg>
